<svg width="167" height="40" viewBox="0 0 167 64" fill="none" xmlns="http://www.w3.org/2000/svg">

  <g transform="scale(0.24) translate(-398, -658)">

    <path d="M490.537 685.12C490.616 684.977 490.569 684.797 490.434 684.719C490.391 684.695 490.343 684.68 490.296 684.68L445.971 684.692C445.48 684.692 445.026 684.433 444.774 684.013L429.694 658.377C429.627 658.253 429.673 658.099 429.794 658.035C429.832 658.014 429.872 658.003 429.914 658.003C469.613 657.997 507.497 658 543.566 658.014C558.67 658.014 570.309 669.15 572.5 684.023C572.558 684.47 572.365 684.693 571.921 684.693H523.458C523.092 684.693 522.752 684.889 522.568 685.205C512.31 702.703 502.105 720.075 491.95 737.314C489.934 740.723 485.299 741.785 482.02 739.782C480.653 738.941 479.445 737.59 478.391 735.726C476.253 731.934 474.124 728.345 472.014 724.962C470.405 722.383 470.32 719.846 471.759 717.356C478.228 706.153 484.487 695.41 490.535 685.12" fill="#F9CF00"/>
    <!-- 白色折线 -->
    <path d="M476.869 773.572C480.989 780.599 490.866 780.191 494.867 773.364C508.814 749.56 522.686 725.886 536.488 702.345C536.584 702.178 536.765 702.075 536.959 702.075H567.787C567.901 702.078 567.992 702.175 567.986 702.289C567.986 702.321 567.978 702.353 567.962 702.38C549.123 734.423 530.136 766.764 510.999 799.407C501.717 815.246 480.069 817.601 466.322 806.246C464.093 804.403 461.518 800.987 458.596 795.998C440.338 764.752 421.731 733.041 402.776 700.861C395.005 687.671 399.823 671.967 411.789 662.947C411.88 662.88 412.002 662.904 412.059 663C433.146 698.926 454.751 735.784 476.869 773.574" fill="currentColor"/>

    <g fill="#FFFFFF">
      <!-- L -->
      <path d="M658.605 719.804L658.494 770.301L642.527 770.258C642.29 770.258 642.101 770.065 642.101 769.831L642.253 719.773"/>
      <path d="M610.575 712.758C610.338 712.758 610.148 712.567 610.148 712.331L610.192 700.306L690.291 700.493C690.528 700.493 690.717 700.684 690.717 700.92L690.709 712.517C690.709 712.752 690.517 712.944 690.283 712.944"/>
      <!-- R -->
      <path d="M727.02 731.533L727.044 769.918C727.044 770.123 726.877 770.29 726.669 770.29L711.369 770.282C711.12 770.282 710.918 770.08 710.918 769.831V700.396C731.12 700.396 751.353 700.402 771.62 700.416C778.688 700.416 786.34 702.752 786.812 711.247C786.987 714.431 787.019 719.652 786.908 726.906C786.844 731.196 786.777 733.546 786.713 733.957C784.735 746.093 769.85 743.927 761.659 743.77L794.399 770.336L771.511 770.269C771.028 770.261 770.609 770.094 770.253 769.762L730.607 731.93C730.458 731.788 730.56 731.539 730.766 731.541L765.538 731.871C769.322 731.85 771.212 730.074 771.204 726.545C771.198 723.64 771.201 720.715 771.219 717.778C771.233 714.913 768.915 712.566 766.048 712.551C752.683 712.484 739.806 712.472 727.418 712.516C727.201 712.516 727.023 712.691 727.023 712.91L727.012 731.533"/>
      <!-- I -->
      <path d="M836.519 700.404H820.165V770.29H836.519V700.404Z"/>
      <!-- D -->
      <path d="M927.393 731.083C928.742 731.083 932.687 728.645 932.687 726.173L932.708 717.513C932.719 714.791 930.369 712.574 927.457 712.559L889.175 712.431C889.064 712.431 888.976 712.519 888.973 712.63L888.525 769.6C888.525 770.059 888.297 770.291 887.834 770.291L872.598 770.28C872.491 770.28 872.402 770.192 872.402 770.084V700.46C872.402 700.413 872.441 700.372 872.491 700.372C890.664 700.433 910.304 700.421 931.405 700.343C940.753 700.299 948.657 702.587 948.449 713.583C948.353 718.713 948.37 723.603 948.502 728.26C948.645 733.355 947.557 736.774 945.465 739.029C942.479 742.251 938.347 743.056 931.206 743.056C906.441 743.056 902.227 742.985 902.227 742.985L902.219 731.223C902.219 731.223 918.459 731.085 927.393 731.085"/>
      <!-- O -->
      <path d="M1058.75 758.235C1058.76 764.821 1053.43 770.17 1046.85 770.182L984.261 770.291C977.675 770.303 972.33 764.973 972.317 758.386L972.235 712.416C972.224 705.831 977.553 700.482 984.141 700.473L1046.73 700.362C1053.31 700.351 1058.66 705.68 1058.67 712.267L1058.75 758.237V758.235ZM1042.55 712.866H988.575V757.103H1042.55V712.866Z"/>
    </g>
  </g>
</svg>
